<svg version="1.0" xmlns="http://www.w3.org/2000/svg"
 width="133.000000pt" height="152.000000pt" viewBox="0 0 133.000000 152.000000"
 preserveAspectRatio="xMidYMid meet">

<g transform="translate(0.000000,152.000000) scale(0.100000,-0.100000)"
fill="#fff" stroke="none">
<path d="M1005 1366 c-33 -15 -370 -408 -370 -432 0 -22 356 -434 381 -440 11
-3 38 -4 58 -2 l37 3 -175 204 c-147 170 -176 209 -176 235 0 26 30 66 170
231 93 110 169 203 170 208 0 12 -63 7 -95 -7z"/>
<path d="M540 1360 c-13 -8 -15 -50 -18 -260 -2 -137 1 -250 5 -249 4 0 25 21
46 45 l37 45 0 199 c0 167 -2 201 -16 214 -18 18 -32 20 -54 6z"/>
<path d="M374 826 c64 -124 116 -233 116 -244 0 -10 -9 -28 -20 -40 -19 -20
-31 -22 -114 -22 -101 0 -120 -9 -114 -52 3 -23 5 -23 159 -28 116 -4 161 -9
173 -19 10 -8 42 -62 71 -120 29 -59 60 -115 68 -126 15 -19 16 -19 36 -1 12
11 21 30 21 44 0 33 -385 780 -417 810 -15 14 -37 22 -59 22 l-36 0 116 -224z"/>
</g>
</svg>
